<?xml version="1.0" encoding="UTF-8" standalone="no"?>
<svg
   xmlns:dc="http://purl.org/dc/elements/1.1/"
   xmlns:cc="http://creativecommons.org/ns#"
   xmlns:rdf="http://www.w3.org/1999/02/22-rdf-syntax-ns#"
   xmlns:svg="http://www.w3.org/2000/svg"
   xmlns="http://www.w3.org/2000/svg"
   width="3.4865029mm"
   height="3.4865mm"
   viewBox="0 0 3.4865029 3.4865"
   version="1.1"
   id="svg8050">
  <defs
     id="defs8044" />
  <metadata
     id="metadata8047">
    <rdf:RDF>
      <cc:Work
         rdf:about="">
        <dc:format>image/svg+xml</dc:format>
        <dc:type
           rdf:resource="http://purl.org/dc/dcmitype/StillImage" />
        <dc:title></dc:title>
      </cc:Work>
    </rdf:RDF>
  </metadata>
  <g
     id="layer1"
     transform="translate(-85.191272,-142.55437)">
    <path
       id="path12150"
       style="fill:#373535;fill-opacity:1;fill-rule:nonzero;stroke:none;stroke-width:0.35277775"
       d="m 88.261497,146.04087 c 0.229306,0 0.416278,-0.18591 0.416278,-0.41628 v -2.65394 c 0,-0.23002 -0.186972,-0.41628 -0.416278,-0.41628 h -2.653241 c -0.230364,0 -0.416984,0.18626 -0.416984,0.41628 v 2.65394 c 0,0.23037 0.18662,0.41628 0.416984,0.41628 z" />
    <path
       id="path12154"
       style="fill:#ffffff;fill-opacity:1;fill-rule:nonzero;stroke:none;stroke-width:0.35277775"
       d="m 86.973717,143.28067 c 0.128764,0 0.232834,-0.10478 0.232834,-0.23354 0,-0.12877 -0.10407,-0.23284 -0.232834,-0.23284 -0.128763,0 -0.233538,0.10407 -0.233538,0.23284 0,0.12876 0.104775,0.23354 0.233538,0.23354" />
    <path
       id="path12158"
       style="fill:#ffffff;fill-opacity:1;fill-rule:nonzero;stroke:none;stroke-width:0.35277775"
       d="m 86.579594,143.31923 c 0.0088,-0.036 -0.01376,-0.0716 -0.04904,-0.0808 l -0.194028,-0.0466 c -0.03669,-0.008 -0.07267,0.0131 -0.08079,0.0487 l -0.163336,0.67592 c -0.0088,0.036 0.01305,0.0716 0.04904,0.0808 l 0.195086,0.0469 c 0.03493,0.009 0.07161,-0.0131 0.07973,-0.049 z" />
    <path
       id="path12162"
       style="fill:#ffffff;fill-opacity:1;fill-rule:nonzero;stroke:none;stroke-width:0.35277775"
       d="m 87.476355,145.72323 c 0,0.001 -7.06e-4,0.003 -7.06e-4,0.004 0,0.0296 0.02399,0.0536 0.05362,0.0536 0.02716,0 0.04974,-0.0205 0.05327,-0.0469 l 0.391231,-2.12266 v -0.004 c 0,-0.0289 -0.02328,-0.0529 -0.05292,-0.0529 -0.02681,0 -0.04763,0.0205 -0.05327,0.0466 z" />
    <path
       id="path12166"
       style="fill:#ffffff;fill-opacity:1;fill-rule:nonzero;stroke:none;stroke-width:0.35277775"
       d="m 86.174464,145.58402 c -0.0021,0.0109 -0.0028,0.0219 -0.0028,0.0332 0,0.091 0.07303,0.16405 0.164042,0.16405 0.07444,0 0.13723,-0.0497 0.156986,-0.11713 l 0.281869,-1.16663 0.268817,1.15958 c 0.01729,0.0716 0.08184,0.12418 0.158397,0.12418 0.09102,0 0.164042,-0.073 0.164042,-0.16405 0,-0.0123 -0.0014,-0.0243 -0.0035,-0.036 l -0.368651,-1.54058 0.03105,-0.13582 0.02434,0.10689 c 0.02187,0.0695 0.08537,0.0766 0.08537,0.0766 l 0.379589,0.0963 c 0.0074,0.001 0.01517,0.002 0.02258,0.002 0.06209,0 0.112536,-0.0497 0.112536,-0.11147 0,-0.0533 -0.03669,-0.0981 -0.08608,-0.10972 l -0.328789,-0.0826 -0.09031,-0.36654 c -0.04269,-0.20461 -0.238477,-0.20002 -0.238477,-0.20002 -0.190148,-0.005 -0.237773,0.19508 -0.237773,0.19508 z" />
  </g>
</svg>
